<mxfile host="Electron" modified="2024-02-20T08:22:14.714Z" agent="Mozilla/5.0 (Windows NT 10.0; Win64; x64) AppleWebKit/537.36 (KHTML, like Gecko) draw.io/23.1.5 Chrome/120.0.6099.109 Electron/28.1.0 Safari/537.36" etag="QT_H-LRXLD7q_mrn8k1w" version="23.1.5" type="device">
  <diagram name="Seite-1" id="QL4EgjG8hwc2p1NccaYU">
    <mxGraphModel dx="384" dy="292" grid="1" gridSize="10" guides="1" tooltips="1" connect="1" arrows="1" fold="1" page="1" pageScale="1" pageWidth="3300" pageHeight="2339" math="0" shadow="0">
      <root>
        <mxCell id="0" />
        <mxCell id="1" parent="0" />
        <mxCell id="QiYBrhJ7gyg8q-LHTaML-1" value="" style="rounded=0;whiteSpace=wrap;html=1;" vertex="1" parent="1">
          <mxGeometry x="440" y="700" width="240" height="60" as="geometry" />
        </mxCell>
        <mxCell id="QiYBrhJ7gyg8q-LHTaML-2" value="" style="rounded=0;whiteSpace=wrap;html=1;" vertex="1" parent="1">
          <mxGeometry x="440" y="660" width="240" height="20" as="geometry" />
        </mxCell>
        <mxCell id="QiYBrhJ7gyg8q-LHTaML-3" value="" style="rounded=0;whiteSpace=wrap;html=1;" vertex="1" parent="1">
          <mxGeometry x="440" y="680" width="240" height="20" as="geometry" />
        </mxCell>
        <mxCell id="QiYBrhJ7gyg8q-LHTaML-4" value="Make_Backup" style="text;html=1;align=center;verticalAlign=middle;whiteSpace=wrap;rounded=0;" vertex="1" parent="1">
          <mxGeometry x="450" y="660" width="220" height="20" as="geometry" />
        </mxCell>
        <mxCell id="QiYBrhJ7gyg8q-LHTaML-64" style="edgeStyle=none;rounded=0;orthogonalLoop=1;jettySize=auto;html=1;exitX=1;exitY=0.5;exitDx=0;exitDy=0;entryX=0;entryY=0.5;entryDx=0;entryDy=0;strokeColor=default;align=center;verticalAlign=middle;fontFamily=Helvetica;fontSize=11;fontColor=default;labelBackgroundColor=default;endArrow=none;endFill=0;" edge="1" parent="1" source="QiYBrhJ7gyg8q-LHTaML-5" target="QiYBrhJ7gyg8q-LHTaML-36">
          <mxGeometry relative="1" as="geometry" />
        </mxCell>
        <mxCell id="QiYBrhJ7gyg8q-LHTaML-5" value="&lt;font style=&quot;font-size: 8px;&quot;&gt;+ preVisitDirectory(Path, BasicFileAttributes): FileVisitResult&lt;br&gt;+ visitFile(Path, BasicFileAttributes): FileVisitResult&lt;br&gt;+ visitFileFailed(Path, IOException):FileVisitResult&lt;br&gt;+ postVisitDirectory(Path, IOException):FileVisitResult&lt;br&gt;&lt;/font&gt;" style="text;html=1;align=left;verticalAlign=middle;whiteSpace=wrap;rounded=0;fontSize=10;labelPosition=center;verticalLabelPosition=middle;" vertex="1" parent="1">
          <mxGeometry x="440" y="700" width="240" height="50" as="geometry" />
        </mxCell>
        <mxCell id="QiYBrhJ7gyg8q-LHTaML-6" value="" style="rounded=0;whiteSpace=wrap;html=1;" vertex="1" parent="1">
          <mxGeometry x="440" y="420" width="240" height="60" as="geometry" />
        </mxCell>
        <mxCell id="QiYBrhJ7gyg8q-LHTaML-7" value="" style="rounded=0;whiteSpace=wrap;html=1;" vertex="1" parent="1">
          <mxGeometry x="440" y="380" width="240" height="20" as="geometry" />
        </mxCell>
        <mxCell id="QiYBrhJ7gyg8q-LHTaML-8" value="" style="rounded=0;whiteSpace=wrap;html=1;" vertex="1" parent="1">
          <mxGeometry x="440" y="400" width="240" height="20" as="geometry" />
        </mxCell>
        <mxCell id="QiYBrhJ7gyg8q-LHTaML-9" value="Find_Drives" style="text;html=1;align=center;verticalAlign=middle;whiteSpace=wrap;rounded=0;" vertex="1" parent="1">
          <mxGeometry x="450" y="380" width="220" height="20" as="geometry" />
        </mxCell>
        <mxCell id="QiYBrhJ7gyg8q-LHTaML-62" style="rounded=0;orthogonalLoop=1;jettySize=auto;html=1;exitX=1;exitY=0.5;exitDx=0;exitDy=0;entryX=0;entryY=0;entryDx=0;entryDy=0;endArrow=none;endFill=0;" edge="1" parent="1" source="QiYBrhJ7gyg8q-LHTaML-10" target="QiYBrhJ7gyg8q-LHTaML-36">
          <mxGeometry relative="1" as="geometry" />
        </mxCell>
        <mxCell id="QiYBrhJ7gyg8q-LHTaML-10" value="&lt;font style=&quot;font-size: 8px;&quot;&gt;+ startSearch(UUID):void&lt;br&gt;+ listAllDrivers(): File[]&lt;br&gt;+ getUsableSpace(File): long&lt;br&gt;+ getTotalSpace(File):long&lt;br&gt;&lt;/font&gt;" style="text;html=1;align=left;verticalAlign=middle;whiteSpace=wrap;rounded=0;fontSize=10;labelPosition=center;verticalLabelPosition=middle;" vertex="1" parent="1">
          <mxGeometry x="440" y="420" width="240" height="50" as="geometry" />
        </mxCell>
        <mxCell id="QiYBrhJ7gyg8q-LHTaML-11" value="- drivers: File[]" style="text;html=1;align=left;verticalAlign=middle;whiteSpace=wrap;rounded=0;fontSize=9;" vertex="1" parent="1">
          <mxGeometry x="440" y="400" width="150" height="20" as="geometry" />
        </mxCell>
        <mxCell id="QiYBrhJ7gyg8q-LHTaML-12" value="" style="rounded=0;whiteSpace=wrap;html=1;" vertex="1" parent="1">
          <mxGeometry x="440" y="840" width="240" height="60" as="geometry" />
        </mxCell>
        <mxCell id="QiYBrhJ7gyg8q-LHTaML-13" value="" style="rounded=0;whiteSpace=wrap;html=1;" vertex="1" parent="1">
          <mxGeometry x="440" y="800" width="240" height="20" as="geometry" />
        </mxCell>
        <mxCell id="QiYBrhJ7gyg8q-LHTaML-14" value="" style="rounded=0;whiteSpace=wrap;html=1;" vertex="1" parent="1">
          <mxGeometry x="440" y="820" width="240" height="20" as="geometry" />
        </mxCell>
        <mxCell id="QiYBrhJ7gyg8q-LHTaML-15" value="Get_UUID" style="text;html=1;align=center;verticalAlign=middle;whiteSpace=wrap;rounded=0;" vertex="1" parent="1">
          <mxGeometry x="450" y="800" width="220" height="20" as="geometry" />
        </mxCell>
        <mxCell id="QiYBrhJ7gyg8q-LHTaML-65" style="edgeStyle=none;rounded=0;orthogonalLoop=1;jettySize=auto;html=1;exitX=1;exitY=0.5;exitDx=0;exitDy=0;entryX=0;entryY=0.75;entryDx=0;entryDy=0;strokeColor=default;align=center;verticalAlign=middle;fontFamily=Helvetica;fontSize=11;fontColor=default;labelBackgroundColor=default;endArrow=none;endFill=0;" edge="1" parent="1" source="QiYBrhJ7gyg8q-LHTaML-16" target="QiYBrhJ7gyg8q-LHTaML-32">
          <mxGeometry relative="1" as="geometry" />
        </mxCell>
        <mxCell id="QiYBrhJ7gyg8q-LHTaML-16" value="&lt;font style=&quot;font-size: 8px;&quot;&gt;+ getUuid(): UUID&lt;br&gt;+ setUuid(String): void&lt;br&gt;+ addUuid(String): void&lt;br&gt;+ comparedUuid(Uuid): Boolean&lt;br&gt;&lt;/font&gt;" style="text;html=1;align=left;verticalAlign=middle;whiteSpace=wrap;rounded=0;fontSize=10;labelPosition=center;verticalLabelPosition=middle;" vertex="1" parent="1">
          <mxGeometry x="440" y="840" width="240" height="50" as="geometry" />
        </mxCell>
        <mxCell id="QiYBrhJ7gyg8q-LHTaML-17" value="- uuid: UUID" style="text;html=1;align=left;verticalAlign=middle;whiteSpace=wrap;rounded=0;fontSize=9;" vertex="1" parent="1">
          <mxGeometry x="440" y="820" width="150" height="20" as="geometry" />
        </mxCell>
        <mxCell id="QiYBrhJ7gyg8q-LHTaML-18" value="" style="rounded=0;whiteSpace=wrap;html=1;" vertex="1" parent="1">
          <mxGeometry x="440" y="560" width="240" height="60" as="geometry" />
        </mxCell>
        <mxCell id="QiYBrhJ7gyg8q-LHTaML-19" value="" style="rounded=0;whiteSpace=wrap;html=1;" vertex="1" parent="1">
          <mxGeometry x="440" y="520" width="240" height="20" as="geometry" />
        </mxCell>
        <mxCell id="QiYBrhJ7gyg8q-LHTaML-20" value="" style="rounded=0;whiteSpace=wrap;html=1;" vertex="1" parent="1">
          <mxGeometry x="440" y="540" width="240" height="20" as="geometry" />
        </mxCell>
        <mxCell id="QiYBrhJ7gyg8q-LHTaML-21" value="Config_Data" style="text;html=1;align=center;verticalAlign=middle;whiteSpace=wrap;rounded=0;" vertex="1" parent="1">
          <mxGeometry x="450" y="520" width="220" height="20" as="geometry" />
        </mxCell>
        <mxCell id="QiYBrhJ7gyg8q-LHTaML-63" style="edgeStyle=none;rounded=0;orthogonalLoop=1;jettySize=auto;html=1;exitX=1;exitY=0.5;exitDx=0;exitDy=0;entryX=0;entryY=0.25;entryDx=0;entryDy=0;strokeColor=default;align=center;verticalAlign=middle;fontFamily=Helvetica;fontSize=11;fontColor=default;labelBackgroundColor=default;endArrow=none;endFill=0;" edge="1" parent="1" source="QiYBrhJ7gyg8q-LHTaML-22" target="QiYBrhJ7gyg8q-LHTaML-36">
          <mxGeometry relative="1" as="geometry" />
        </mxCell>
        <mxCell id="QiYBrhJ7gyg8q-LHTaML-22" value="&lt;font style=&quot;font-size: 8px;&quot;&gt;+ getLastModified(): long&lt;br&gt;+ setLastModified(long): void&lt;br&gt;+ writeFile(String): void&lt;br&gt;+ loadFile(String): String&lt;br&gt;+ hideFile(String): void&lt;br&gt;&lt;/font&gt;" style="text;html=1;align=left;verticalAlign=middle;whiteSpace=wrap;rounded=0;fontSize=10;labelPosition=center;verticalLabelPosition=middle;" vertex="1" parent="1">
          <mxGeometry x="440" y="560" width="240" height="60" as="geometry" />
        </mxCell>
        <mxCell id="QiYBrhJ7gyg8q-LHTaML-24" value="- lastModified: long" style="text;html=1;align=left;verticalAlign=middle;whiteSpace=wrap;rounded=0;fontSize=9;" vertex="1" parent="1">
          <mxGeometry x="440" y="540" width="150" height="20" as="geometry" />
        </mxCell>
        <mxCell id="QiYBrhJ7gyg8q-LHTaML-32" value="" style="rounded=0;whiteSpace=wrap;html=1;" vertex="1" parent="1">
          <mxGeometry x="760" y="630" width="240" height="90" as="geometry" />
        </mxCell>
        <mxCell id="QiYBrhJ7gyg8q-LHTaML-33" value="" style="rounded=0;whiteSpace=wrap;html=1;" vertex="1" parent="1">
          <mxGeometry x="760" y="590" width="240" height="20" as="geometry" />
        </mxCell>
        <mxCell id="QiYBrhJ7gyg8q-LHTaML-70" style="edgeStyle=none;rounded=0;orthogonalLoop=1;jettySize=auto;html=1;exitX=1;exitY=0.5;exitDx=0;exitDy=0;entryX=0;entryY=0.5;entryDx=0;entryDy=0;strokeColor=default;align=center;verticalAlign=middle;fontFamily=Helvetica;fontSize=11;fontColor=default;labelBackgroundColor=default;endArrow=none;endFill=0;" edge="1" parent="1" source="QiYBrhJ7gyg8q-LHTaML-34" target="QiYBrhJ7gyg8q-LHTaML-43">
          <mxGeometry relative="1" as="geometry" />
        </mxCell>
        <mxCell id="QiYBrhJ7gyg8q-LHTaML-34" value="" style="rounded=0;whiteSpace=wrap;html=1;" vertex="1" parent="1">
          <mxGeometry x="760" y="610" width="240" height="20" as="geometry" />
        </mxCell>
        <mxCell id="QiYBrhJ7gyg8q-LHTaML-35" value="Main" style="text;html=1;align=center;verticalAlign=middle;whiteSpace=wrap;rounded=0;" vertex="1" parent="1">
          <mxGeometry x="770" y="590" width="220" height="20" as="geometry" />
        </mxCell>
        <mxCell id="QiYBrhJ7gyg8q-LHTaML-36" value="&lt;font style=&quot;font-size: 8px;&quot;&gt;+ startSearch():void&lt;br&gt;+ renderGUI():void&lt;br&gt;+ initFirstBackup(): void&lt;br&gt;+ runBackup(): void&lt;br&gt;+ initConfigData(): void&lt;br&gt;+ getDriverList(): File[]&lt;br&gt;+ getStatus(): String&lt;br&gt;&lt;/font&gt;" style="text;html=1;align=left;verticalAlign=middle;whiteSpace=wrap;rounded=0;fontSize=10;labelPosition=center;verticalLabelPosition=middle;" vertex="1" parent="1">
          <mxGeometry x="760" y="630" width="240" height="80" as="geometry" />
        </mxCell>
        <mxCell id="QiYBrhJ7gyg8q-LHTaML-68" style="edgeStyle=none;rounded=0;orthogonalLoop=1;jettySize=auto;html=1;exitX=0.5;exitY=1;exitDx=0;exitDy=0;entryX=0.5;entryY=0;entryDx=0;entryDy=0;strokeColor=default;align=center;verticalAlign=middle;fontFamily=Helvetica;fontSize=11;fontColor=default;labelBackgroundColor=default;endArrow=none;endFill=0;" edge="1" parent="1" source="QiYBrhJ7gyg8q-LHTaML-38" target="QiYBrhJ7gyg8q-LHTaML-47">
          <mxGeometry relative="1" as="geometry" />
        </mxCell>
        <mxCell id="QiYBrhJ7gyg8q-LHTaML-38" value="" style="rounded=0;whiteSpace=wrap;html=1;" vertex="1" parent="1">
          <mxGeometry x="1090" y="630" width="240" height="60" as="geometry" />
        </mxCell>
        <mxCell id="QiYBrhJ7gyg8q-LHTaML-39" value="" style="rounded=0;whiteSpace=wrap;html=1;" vertex="1" parent="1">
          <mxGeometry x="1090" y="590" width="240" height="20" as="geometry" />
        </mxCell>
        <mxCell id="QiYBrhJ7gyg8q-LHTaML-40" value="" style="rounded=0;whiteSpace=wrap;html=1;" vertex="1" parent="1">
          <mxGeometry x="1090" y="610" width="240" height="20" as="geometry" />
        </mxCell>
        <mxCell id="QiYBrhJ7gyg8q-LHTaML-67" style="edgeStyle=none;rounded=0;orthogonalLoop=1;jettySize=auto;html=1;exitX=0.5;exitY=0;exitDx=0;exitDy=0;entryX=0.5;entryY=1;entryDx=0;entryDy=0;strokeColor=default;align=center;verticalAlign=middle;fontFamily=Helvetica;fontSize=11;fontColor=default;labelBackgroundColor=default;endArrow=none;endFill=0;" edge="1" parent="1" source="QiYBrhJ7gyg8q-LHTaML-41" target="QiYBrhJ7gyg8q-LHTaML-50">
          <mxGeometry relative="1" as="geometry" />
        </mxCell>
        <mxCell id="QiYBrhJ7gyg8q-LHTaML-41" value="View" style="text;html=1;align=center;verticalAlign=middle;whiteSpace=wrap;rounded=0;" vertex="1" parent="1">
          <mxGeometry x="1100" y="590" width="220" height="20" as="geometry" />
        </mxCell>
        <mxCell id="QiYBrhJ7gyg8q-LHTaML-42" value="&lt;font style=&quot;font-size: 8px;&quot;&gt;+ renderGUI(): void&lt;br&gt;+ showSelectList(): void&lt;br&gt;+ addProtocollEntry(Protocoll): void&lt;br&gt;+ updateStatus(String): void&lt;br&gt;+ ???&lt;br&gt;&lt;/font&gt;" style="text;html=1;align=left;verticalAlign=middle;whiteSpace=wrap;rounded=0;fontSize=10;labelPosition=center;verticalLabelPosition=middle;" vertex="1" parent="1">
          <mxGeometry x="1090" y="630" width="240" height="60" as="geometry" />
        </mxCell>
        <mxCell id="QiYBrhJ7gyg8q-LHTaML-43" value="- ???" style="text;html=1;align=left;verticalAlign=middle;whiteSpace=wrap;rounded=0;fontSize=9;" vertex="1" parent="1">
          <mxGeometry x="1090" y="610" width="150" height="20" as="geometry" />
        </mxCell>
        <mxCell id="QiYBrhJ7gyg8q-LHTaML-44" value="" style="rounded=0;whiteSpace=wrap;html=1;" vertex="1" parent="1">
          <mxGeometry x="1090" y="770" width="240" height="60" as="geometry" />
        </mxCell>
        <mxCell id="QiYBrhJ7gyg8q-LHTaML-45" value="" style="rounded=0;whiteSpace=wrap;html=1;" vertex="1" parent="1">
          <mxGeometry x="1090" y="730" width="240" height="20" as="geometry" />
        </mxCell>
        <mxCell id="QiYBrhJ7gyg8q-LHTaML-46" value="" style="rounded=0;whiteSpace=wrap;html=1;" vertex="1" parent="1">
          <mxGeometry x="1090" y="750" width="240" height="20" as="geometry" />
        </mxCell>
        <mxCell id="QiYBrhJ7gyg8q-LHTaML-47" value="Gui" style="text;html=1;align=center;verticalAlign=middle;whiteSpace=wrap;rounded=0;" vertex="1" parent="1">
          <mxGeometry x="1100" y="730" width="220" height="20" as="geometry" />
        </mxCell>
        <mxCell id="QiYBrhJ7gyg8q-LHTaML-48" value="&lt;font style=&quot;font-size: 8px;&quot;&gt;+ renderGUI(): void&lt;br&gt;+ ???&lt;br&gt;&lt;/font&gt;" style="text;html=1;align=left;verticalAlign=middle;whiteSpace=wrap;rounded=0;fontSize=10;labelPosition=center;verticalLabelPosition=middle;" vertex="1" parent="1">
          <mxGeometry x="1090" y="770" width="240" height="50" as="geometry" />
        </mxCell>
        <mxCell id="QiYBrhJ7gyg8q-LHTaML-49" value="- ???" style="text;html=1;align=left;verticalAlign=middle;whiteSpace=wrap;rounded=0;fontSize=9;" vertex="1" parent="1">
          <mxGeometry x="1090" y="750" width="150" height="20" as="geometry" />
        </mxCell>
        <mxCell id="QiYBrhJ7gyg8q-LHTaML-50" value="" style="rounded=0;whiteSpace=wrap;html=1;" vertex="1" parent="1">
          <mxGeometry x="1090" y="490" width="240" height="60" as="geometry" />
        </mxCell>
        <mxCell id="QiYBrhJ7gyg8q-LHTaML-51" value="" style="rounded=0;whiteSpace=wrap;html=1;" vertex="1" parent="1">
          <mxGeometry x="1090" y="450" width="240" height="20" as="geometry" />
        </mxCell>
        <mxCell id="QiYBrhJ7gyg8q-LHTaML-52" value="" style="rounded=0;whiteSpace=wrap;html=1;" vertex="1" parent="1">
          <mxGeometry x="1090" y="470" width="240" height="20" as="geometry" />
        </mxCell>
        <mxCell id="QiYBrhJ7gyg8q-LHTaML-53" value="Protocoll" style="text;html=1;align=center;verticalAlign=middle;whiteSpace=wrap;rounded=0;" vertex="1" parent="1">
          <mxGeometry x="1100" y="450" width="220" height="20" as="geometry" />
        </mxCell>
        <mxCell id="QiYBrhJ7gyg8q-LHTaML-54" value="&lt;font style=&quot;font-size: 8px;&quot;&gt;+ ???&lt;br&gt;&lt;/font&gt;" style="text;html=1;align=left;verticalAlign=middle;whiteSpace=wrap;rounded=0;fontSize=10;labelPosition=center;verticalLabelPosition=middle;" vertex="1" parent="1">
          <mxGeometry x="1090" y="490" width="240" height="50" as="geometry" />
        </mxCell>
        <mxCell id="QiYBrhJ7gyg8q-LHTaML-55" value="- ???" style="text;html=1;align=left;verticalAlign=middle;whiteSpace=wrap;rounded=0;fontSize=9;" vertex="1" parent="1">
          <mxGeometry x="1090" y="470" width="150" height="20" as="geometry" />
        </mxCell>
      </root>
    </mxGraphModel>
  </diagram>
</mxfile>
